# xmcd
#
# Track frame offsets:
#	150
#	21924
#	37801
#	47691
#	69735
#	83095
#	100555
#	116646
#	130170
#	148982
#	153844
#	174877
#	176652
#	191742
#	195133
#	209097
#	237599
#	241699
#
# Disc length: 3477 seconds
#
# Revision: 1
# Processed by: cddbd v1.4PL0 Copyright (c) Steve Scherf et al.
# Submitted via: audiograbber 1.81.03
#
DISCID=f00d9312
DTITLE=Ronnie Drew and Eleanor Shanley - A Couple More Years
DYEAR=1900
DGENRE=
TTITLE0=A Couple More Years
TTITLE1=Johnny Lovely Johnny
TTITLE2=Ronnie Story 1
TTITLE3=Boots of Spanish Leather
TTITLE4=Ronnie Story 2
TTITLE5=What Will We Tell The Children
TTITLE6=Dreaming My Dreams
TTITLE7=Journey's End
TTITLE8=Hard Times
TTITLE9=Ronnie Story 3
TTITLE10=Viva La Quinta Brigada
TTITLE11=Ronnie Story 4
TTITLE12=The Young Man Who Used To Be
TTITLE13=Ronnie Story 5
TTITLE14=Brian Og and Mollie Ban
TTITLE15=Restless Farewell - Parting Glass
TTITLE16=Ronnie Story 6
TTITLE17=We Had It All
EXTD=
EXTT0=
EXTT1=
EXTT2=
EXTT3=
EXTT4=
EXTT5=
EXTT6=
EXTT7=
EXTT8=
EXTT9=
EXTT10=
EXTT11=
EXTT12=
EXTT13=
EXTT14=
EXTT15=
EXTT16=
EXTT17=
PLAYORDER=
